<svg width="558" height="558" viewBox="0 0 558 558" fill="none" xmlns="http://www.w3.org/2000/svg">
<circle cx="279" cy="279" r="279" fill="#EDEDEB"/>
<path d="M269.204 93.6323C255.404 95.8323 242.604 102.532 231.704 113.132C225.504 119.232 224.404 120.932 222.904 126.132C219.504 138.532 219.104 142.932 218.304 178.432C217.804 204.832 217.204 215.032 216.304 215.932C215.404 216.832 206.104 217.232 180.404 217.432C149.704 217.732 144.704 217.932 136.704 219.732C124.104 222.632 118.004 225.832 111.304 233.332C99.8035 246.032 94.1035 261.232 94.0035 279.132C93.9035 291.532 95.9035 299.932 101.904 312.332C108.904 326.632 117.104 333.432 133.704 338.332C139.004 339.932 144.204 340.132 177.404 340.132C207.004 340.132 215.404 340.432 216.404 341.432C217.404 342.432 217.704 350.732 217.704 379.932C217.704 415.632 217.804 417.432 220.004 424.432C226.104 444.432 242.204 458.732 263.404 463.032C278.104 466.032 294.604 464.432 305.704 458.932C320.804 451.332 332.304 440.832 337.604 429.632C340.304 423.932 340.704 422.132 340.604 415.132C340.504 402.132 335.204 388.032 327.704 380.432C322.604 375.232 303.604 362.632 285.204 352.132C254.904 334.932 248.604 331.232 240.204 325.632C230.204 318.832 225.404 315.032 219.004 309.032C201.004 291.832 194.204 261.932 203.904 242.532C213.004 224.332 231.204 215.132 250.104 219.032C259.704 221.032 266.504 224.832 273.804 232.332L280.004 238.632L282.604 235.132C292.404 222.232 303.704 217.032 319.904 217.832C330.504 218.332 336.304 221.032 345.704 229.832C358.704 241.932 362.004 258.132 356.204 280.332C350.804 300.332 337.404 319.132 318.504 332.832C313.904 336.132 310.204 339.132 310.204 339.432C310.204 339.732 334.804 339.632 364.804 339.232C425.204 338.432 425.904 338.332 436.704 331.532C448.204 324.232 458.904 309.032 462.004 295.632C466.504 276.232 462.904 254.432 452.604 239.432C447.504 231.932 443.504 228.032 436.804 224.132C424.804 217.032 412.204 215.432 380.304 216.532C357.604 217.432 343.404 216.632 342.104 214.432C341.604 213.732 341.304 198.732 341.304 181.132C341.404 147.332 340.604 139.032 336.304 126.532C332.404 114.932 326.304 108.232 313.604 101.032C302.604 94.8323 282.504 91.5323 269.204 93.6323Z" fill="black"/>
</svg>
